<svg width="35" height="40" viewBox="0 0 35 40" fill="none" xmlns="http://www.w3.org/2000/svg">
<path d="M17.5 0.322021C16.1172 0.322021 15 1.42027 15 2.77965V4.25422C9.29684 5.39088 4.99997 10.3522 4.99997 16.2966V17.7405C4.99997 21.3501 3.64841 24.8369 1.21091 27.5402L0.632782 28.1777C-0.0234681 28.8996 -0.179718 29.9364 0.218719 30.8196C0.617157 31.7028 1.51559 32.2712 2.49997 32.2712H32.5C33.4843 32.2712 34.375 31.7028 34.7812 30.8196C35.1875 29.9364 35.0234 28.8996 34.3672 28.1777L33.789 27.5402C31.3515 24.8369 30 21.3578 30 17.7405V16.2966C30 10.3522 25.7031 5.39088 20 4.25422V2.77965C20 1.42027 18.8828 0.322021 17.5 0.322021ZM21.039 38.2079C21.9765 37.2863 22.5 36.0344 22.5 34.7288H17.5H12.5C12.5 36.0344 13.0234 37.2863 13.9609 38.2079C14.8984 39.1295 16.1718 39.6441 17.5 39.6441C18.8281 39.6441 20.1015 39.1295 21.039 38.2079Z" fill="white"/>
</svg>
